<mxfile host="app.diagrams.net" modified="2022-05-04T19:29:40.323Z" agent="5.0 (X11)" etag="8lp86fOh0brqAq7CxX6R" version="18.0.0" type="github">
  <diagram id="xdTWjJYM175qfD4tmGjs" name="Page-1">
    <mxGraphModel dx="852" dy="443" grid="1" gridSize="10" guides="1" tooltips="1" connect="1" arrows="1" fold="1" page="1" pageScale="1" pageWidth="1200" pageHeight="1600" math="0" shadow="0">
      <root>
        <mxCell id="0" />
        <mxCell id="1" parent="0" />
        <mxCell id="1-D_KxIJZ4Pd3v68MxdM-4" value="" style="edgeStyle=orthogonalEdgeStyle;rounded=0;orthogonalLoop=1;jettySize=auto;html=1;endArrow=none;endFill=0;fontFamily=Verdana;labelBackgroundColor=none;" parent="1" source="1-D_KxIJZ4Pd3v68MxdM-1" target="1-D_KxIJZ4Pd3v68MxdM-2" edge="1">
          <mxGeometry relative="1" as="geometry" />
        </mxCell>
        <mxCell id="1-D_KxIJZ4Pd3v68MxdM-1" value="User" style="rounded=0;whiteSpace=wrap;html=1;fontFamily=Verdana;labelBackgroundColor=none;" parent="1" vertex="1">
          <mxGeometry x="200" y="120" width="120" height="60" as="geometry" />
        </mxCell>
        <mxCell id="1-D_KxIJZ4Pd3v68MxdM-2" value="" style="rhombus;whiteSpace=wrap;html=1;fontFamily=Verdana;labelBackgroundColor=none;" parent="1" vertex="1">
          <mxGeometry x="385" y="130" width="40" height="40" as="geometry" />
        </mxCell>
        <mxCell id="1-D_KxIJZ4Pd3v68MxdM-5" value="" style="edgeStyle=orthogonalEdgeStyle;rounded=0;orthogonalLoop=1;jettySize=auto;html=1;endArrow=none;endFill=0;fontFamily=Verdana;labelBackgroundColor=none;" parent="1" source="1-D_KxIJZ4Pd3v68MxdM-3" target="1-D_KxIJZ4Pd3v68MxdM-2" edge="1">
          <mxGeometry relative="1" as="geometry" />
        </mxCell>
        <mxCell id="1-D_KxIJZ4Pd3v68MxdM-3" value="&lt;div&gt;Service&lt;/div&gt;&lt;div&gt;Activation&lt;/div&gt;&lt;div&gt;Schedule&lt;br&gt;&lt;/div&gt;" style="rounded=0;whiteSpace=wrap;html=1;fontFamily=Verdana;labelBackgroundColor=none;" parent="1" vertex="1">
          <mxGeometry x="490" y="120" width="120" height="60" as="geometry" />
        </mxCell>
        <mxCell id="1-D_KxIJZ4Pd3v68MxdM-11" style="edgeStyle=orthogonalEdgeStyle;rounded=0;orthogonalLoop=1;jettySize=auto;html=1;entryX=0;entryY=0.5;entryDx=0;entryDy=0;endArrow=classic;endFill=1;fontFamily=Verdana;labelBackgroundColor=none;" parent="1" source="1-D_KxIJZ4Pd3v68MxdM-7" target="1-D_KxIJZ4Pd3v68MxdM-10" edge="1">
          <mxGeometry relative="1" as="geometry" />
        </mxCell>
        <mxCell id="1-D_KxIJZ4Pd3v68MxdM-7" value="User" style="rounded=0;whiteSpace=wrap;html=1;fontFamily=Verdana;labelBackgroundColor=none;" parent="1" vertex="1">
          <mxGeometry x="200" y="230" width="120" height="60" as="geometry" />
        </mxCell>
        <mxCell id="1-D_KxIJZ4Pd3v68MxdM-10" value="&lt;div&gt;Service&lt;/div&gt;&lt;div&gt;Activation&lt;/div&gt;&lt;div&gt;Schedule&lt;br&gt;&lt;/div&gt;" style="rounded=0;whiteSpace=wrap;html=1;fontFamily=Verdana;labelBackgroundColor=none;" parent="1" vertex="1">
          <mxGeometry x="490" y="230" width="120" height="60" as="geometry" />
        </mxCell>
        <mxCell id="1-D_KxIJZ4Pd3v68MxdM-12" style="edgeStyle=orthogonalEdgeStyle;rounded=0;orthogonalLoop=1;jettySize=auto;html=1;entryX=0;entryY=0.5;entryDx=0;entryDy=0;endArrow=none;endFill=0;startArrow=classic;startFill=1;fontFamily=Verdana;labelBackgroundColor=none;" parent="1" source="1-D_KxIJZ4Pd3v68MxdM-13" target="1-D_KxIJZ4Pd3v68MxdM-14" edge="1">
          <mxGeometry relative="1" as="geometry" />
        </mxCell>
        <mxCell id="1-D_KxIJZ4Pd3v68MxdM-13" value="User" style="rounded=0;whiteSpace=wrap;html=1;fontFamily=Verdana;labelBackgroundColor=none;" parent="1" vertex="1">
          <mxGeometry x="200" y="340" width="120" height="60" as="geometry" />
        </mxCell>
        <mxCell id="1-D_KxIJZ4Pd3v68MxdM-14" value="&lt;div&gt;Service&lt;/div&gt;&lt;div&gt;Activation&lt;/div&gt;&lt;div&gt;Schedule&lt;br&gt;&lt;/div&gt;" style="rounded=0;whiteSpace=wrap;html=1;fontFamily=Verdana;labelBackgroundColor=none;" parent="1" vertex="1">
          <mxGeometry x="490" y="340" width="120" height="60" as="geometry" />
        </mxCell>
        <mxCell id="1-D_KxIJZ4Pd3v68MxdM-27" value="0:N" style="text;html=1;align=center;verticalAlign=middle;resizable=0;points=[];autosize=1;strokeColor=none;fillColor=none;fontFamily=Verdana;" parent="1" vertex="1">
          <mxGeometry x="345" y="120" width="40" height="20" as="geometry" />
        </mxCell>
        <mxCell id="1-D_KxIJZ4Pd3v68MxdM-28" value="1:1" style="text;html=1;align=center;verticalAlign=middle;resizable=0;points=[];autosize=1;strokeColor=none;fillColor=none;fontFamily=Verdana;" parent="1" vertex="1">
          <mxGeometry x="430" y="120" width="30" height="20" as="geometry" />
        </mxCell>
        <mxCell id="1-D_KxIJZ4Pd3v68MxdM-29" value="*" style="text;html=1;align=center;verticalAlign=middle;resizable=0;points=[];autosize=1;strokeColor=none;fillColor=none;fontFamily=Verdana;" parent="1" vertex="1">
          <mxGeometry x="460" y="230" width="20" height="20" as="geometry" />
        </mxCell>
        <mxCell id="1-D_KxIJZ4Pd3v68MxdM-30" value="1" style="text;html=1;align=center;verticalAlign=middle;resizable=0;points=[];autosize=1;strokeColor=none;fillColor=none;fontFamily=Verdana;" parent="1" vertex="1">
          <mxGeometry x="330" y="340" width="20" height="20" as="geometry" />
        </mxCell>
        <mxCell id="1-D_KxIJZ4Pd3v68MxdM-31" value="" style="edgeStyle=orthogonalEdgeStyle;rounded=0;orthogonalLoop=1;jettySize=auto;html=1;endArrow=none;endFill=0;fontFamily=Verdana;labelBackgroundColor=none;" parent="1" source="1-D_KxIJZ4Pd3v68MxdM-32" target="1-D_KxIJZ4Pd3v68MxdM-33" edge="1">
          <mxGeometry relative="1" as="geometry" />
        </mxCell>
        <mxCell id="1-D_KxIJZ4Pd3v68MxdM-32" value="User" style="rounded=0;whiteSpace=wrap;html=1;fontFamily=Verdana;labelBackgroundColor=none;" parent="1" vertex="1">
          <mxGeometry x="680" y="120" width="120" height="60" as="geometry" />
        </mxCell>
        <mxCell id="1-D_KxIJZ4Pd3v68MxdM-33" value="" style="rhombus;whiteSpace=wrap;html=1;fontFamily=Verdana;labelBackgroundColor=none;" parent="1" vertex="1">
          <mxGeometry x="865" y="130" width="40" height="40" as="geometry" />
        </mxCell>
        <mxCell id="1-D_KxIJZ4Pd3v68MxdM-34" value="" style="edgeStyle=orthogonalEdgeStyle;rounded=0;orthogonalLoop=1;jettySize=auto;html=1;endArrow=none;endFill=0;fontFamily=Verdana;labelBackgroundColor=none;" parent="1" source="1-D_KxIJZ4Pd3v68MxdM-35" target="1-D_KxIJZ4Pd3v68MxdM-33" edge="1">
          <mxGeometry relative="1" as="geometry" />
        </mxCell>
        <mxCell id="1-D_KxIJZ4Pd3v68MxdM-35" value="Order" style="rounded=0;whiteSpace=wrap;html=1;fontFamily=Verdana;labelBackgroundColor=none;" parent="1" vertex="1">
          <mxGeometry x="970" y="120" width="120" height="60" as="geometry" />
        </mxCell>
        <mxCell id="1-D_KxIJZ4Pd3v68MxdM-36" style="edgeStyle=orthogonalEdgeStyle;rounded=0;orthogonalLoop=1;jettySize=auto;html=1;entryX=0;entryY=0.5;entryDx=0;entryDy=0;endArrow=classic;endFill=1;fontFamily=Verdana;labelBackgroundColor=none;" parent="1" source="1-D_KxIJZ4Pd3v68MxdM-37" target="1-D_KxIJZ4Pd3v68MxdM-38" edge="1">
          <mxGeometry relative="1" as="geometry" />
        </mxCell>
        <mxCell id="1-D_KxIJZ4Pd3v68MxdM-37" value="User" style="rounded=0;whiteSpace=wrap;html=1;fontFamily=Verdana;labelBackgroundColor=none;" parent="1" vertex="1">
          <mxGeometry x="680" y="230" width="120" height="60" as="geometry" />
        </mxCell>
        <mxCell id="1-D_KxIJZ4Pd3v68MxdM-38" value="Order" style="rounded=0;whiteSpace=wrap;html=1;fontFamily=Verdana;labelBackgroundColor=none;" parent="1" vertex="1">
          <mxGeometry x="970" y="230" width="120" height="60" as="geometry" />
        </mxCell>
        <mxCell id="1-D_KxIJZ4Pd3v68MxdM-39" style="edgeStyle=orthogonalEdgeStyle;rounded=0;orthogonalLoop=1;jettySize=auto;html=1;entryX=0;entryY=0.5;entryDx=0;entryDy=0;endArrow=none;endFill=0;startArrow=classic;startFill=1;fontFamily=Verdana;labelBackgroundColor=none;" parent="1" source="1-D_KxIJZ4Pd3v68MxdM-40" target="1-D_KxIJZ4Pd3v68MxdM-41" edge="1">
          <mxGeometry relative="1" as="geometry" />
        </mxCell>
        <mxCell id="1-D_KxIJZ4Pd3v68MxdM-40" value="User" style="rounded=0;whiteSpace=wrap;html=1;fontFamily=Verdana;labelBackgroundColor=none;" parent="1" vertex="1">
          <mxGeometry x="680" y="340" width="120" height="60" as="geometry" />
        </mxCell>
        <mxCell id="1-D_KxIJZ4Pd3v68MxdM-41" value="Order" style="rounded=0;whiteSpace=wrap;html=1;fontFamily=Verdana;labelBackgroundColor=none;" parent="1" vertex="1">
          <mxGeometry x="970" y="340" width="120" height="60" as="geometry" />
        </mxCell>
        <mxCell id="1-D_KxIJZ4Pd3v68MxdM-42" value="0:N" style="text;html=1;align=center;verticalAlign=middle;resizable=0;points=[];autosize=1;strokeColor=none;fillColor=none;fontFamily=Verdana;" parent="1" vertex="1">
          <mxGeometry x="825" y="120" width="40" height="20" as="geometry" />
        </mxCell>
        <mxCell id="1-D_KxIJZ4Pd3v68MxdM-43" value="1:1" style="text;html=1;align=center;verticalAlign=middle;resizable=0;points=[];autosize=1;strokeColor=none;fillColor=none;fontFamily=Verdana;" parent="1" vertex="1">
          <mxGeometry x="910" y="120" width="30" height="20" as="geometry" />
        </mxCell>
        <mxCell id="1-D_KxIJZ4Pd3v68MxdM-44" value="*" style="text;html=1;align=center;verticalAlign=middle;resizable=0;points=[];autosize=1;strokeColor=none;fillColor=none;fontFamily=Verdana;" parent="1" vertex="1">
          <mxGeometry x="940" y="230" width="20" height="20" as="geometry" />
        </mxCell>
        <mxCell id="1-D_KxIJZ4Pd3v68MxdM-45" value="1" style="text;html=1;align=center;verticalAlign=middle;resizable=0;points=[];autosize=1;strokeColor=none;fillColor=none;fontFamily=Verdana;" parent="1" vertex="1">
          <mxGeometry x="810" y="340" width="20" height="20" as="geometry" />
        </mxCell>
        <mxCell id="1-D_KxIJZ4Pd3v68MxdM-46" value="" style="edgeStyle=orthogonalEdgeStyle;rounded=0;orthogonalLoop=1;jettySize=auto;html=1;endArrow=none;endFill=0;fontFamily=Verdana;labelBackgroundColor=none;" parent="1" source="1-D_KxIJZ4Pd3v68MxdM-47" target="1-D_KxIJZ4Pd3v68MxdM-48" edge="1">
          <mxGeometry relative="1" as="geometry" />
        </mxCell>
        <mxCell id="1-D_KxIJZ4Pd3v68MxdM-47" value="&lt;div&gt;Service&lt;/div&gt;&lt;div&gt;Activation&lt;/div&gt;&lt;div&gt;Schedule&lt;br&gt;&lt;/div&gt;" style="rounded=0;whiteSpace=wrap;html=1;fontFamily=Verdana;labelBackgroundColor=none;" parent="1" vertex="1">
          <mxGeometry x="200" y="490" width="120" height="60" as="geometry" />
        </mxCell>
        <mxCell id="1-D_KxIJZ4Pd3v68MxdM-48" value="" style="rhombus;whiteSpace=wrap;html=1;fontFamily=Verdana;labelBackgroundColor=none;" parent="1" vertex="1">
          <mxGeometry x="385" y="500" width="40" height="40" as="geometry" />
        </mxCell>
        <mxCell id="1-D_KxIJZ4Pd3v68MxdM-49" value="" style="edgeStyle=orthogonalEdgeStyle;rounded=0;orthogonalLoop=1;jettySize=auto;html=1;endArrow=none;endFill=0;fontFamily=Verdana;labelBackgroundColor=none;" parent="1" source="1-D_KxIJZ4Pd3v68MxdM-50" target="1-D_KxIJZ4Pd3v68MxdM-48" edge="1">
          <mxGeometry relative="1" as="geometry" />
        </mxCell>
        <mxCell id="1-D_KxIJZ4Pd3v68MxdM-50" value="Order" style="rounded=0;whiteSpace=wrap;html=1;fontFamily=Verdana;labelBackgroundColor=none;" parent="1" vertex="1">
          <mxGeometry x="490" y="490" width="120" height="60" as="geometry" />
        </mxCell>
        <mxCell id="1-D_KxIJZ4Pd3v68MxdM-51" style="edgeStyle=orthogonalEdgeStyle;rounded=0;orthogonalLoop=1;jettySize=auto;html=1;entryX=0;entryY=0.5;entryDx=0;entryDy=0;endArrow=classic;endFill=1;fontFamily=Verdana;labelBackgroundColor=none;" parent="1" source="1-D_KxIJZ4Pd3v68MxdM-52" target="1-D_KxIJZ4Pd3v68MxdM-53" edge="1">
          <mxGeometry relative="1" as="geometry" />
        </mxCell>
        <mxCell id="1-D_KxIJZ4Pd3v68MxdM-52" value="&lt;div&gt;Service&lt;/div&gt;&lt;div&gt;Activation&lt;/div&gt;&lt;div&gt;Schedule&lt;br&gt;&lt;/div&gt;" style="rounded=0;whiteSpace=wrap;html=1;fontFamily=Verdana;labelBackgroundColor=none;" parent="1" vertex="1">
          <mxGeometry x="200" y="600" width="120" height="60" as="geometry" />
        </mxCell>
        <mxCell id="1-D_KxIJZ4Pd3v68MxdM-53" value="Order" style="rounded=0;whiteSpace=wrap;html=1;fontFamily=Verdana;labelBackgroundColor=none;" parent="1" vertex="1">
          <mxGeometry x="490" y="600" width="120" height="60" as="geometry" />
        </mxCell>
        <mxCell id="1-D_KxIJZ4Pd3v68MxdM-57" value="1:1" style="text;html=1;align=center;verticalAlign=middle;resizable=0;points=[];autosize=1;strokeColor=none;fillColor=none;fontFamily=Verdana;" parent="1" vertex="1">
          <mxGeometry x="350" y="490" width="30" height="20" as="geometry" />
        </mxCell>
        <mxCell id="1-D_KxIJZ4Pd3v68MxdM-58" value="1:0" style="text;html=1;align=center;verticalAlign=middle;resizable=0;points=[];autosize=1;strokeColor=none;fillColor=none;fontFamily=Verdana;" parent="1" vertex="1">
          <mxGeometry x="430" y="490" width="30" height="20" as="geometry" />
        </mxCell>
        <mxCell id="1-D_KxIJZ4Pd3v68MxdM-59" value="1" style="text;html=1;align=center;verticalAlign=middle;resizable=0;points=[];autosize=1;strokeColor=none;fillColor=none;fontFamily=Verdana;" parent="1" vertex="1">
          <mxGeometry x="460" y="600" width="20" height="20" as="geometry" />
        </mxCell>
        <mxCell id="1-D_KxIJZ4Pd3v68MxdM-61" value="" style="edgeStyle=orthogonalEdgeStyle;rounded=0;orthogonalLoop=1;jettySize=auto;html=1;endArrow=none;endFill=0;fontFamily=Verdana;labelBackgroundColor=none;" parent="1" source="1-D_KxIJZ4Pd3v68MxdM-62" target="1-D_KxIJZ4Pd3v68MxdM-63" edge="1">
          <mxGeometry relative="1" as="geometry" />
        </mxCell>
        <mxCell id="1-D_KxIJZ4Pd3v68MxdM-62" value="Order" style="rounded=0;whiteSpace=wrap;html=1;fontFamily=Verdana;labelBackgroundColor=none;" parent="1" vertex="1">
          <mxGeometry x="200" y="830" width="120" height="60" as="geometry" />
        </mxCell>
        <mxCell id="1-D_KxIJZ4Pd3v68MxdM-63" value="" style="rhombus;whiteSpace=wrap;html=1;fontFamily=Verdana;labelBackgroundColor=none;" parent="1" vertex="1">
          <mxGeometry x="385" y="840" width="40" height="40" as="geometry" />
        </mxCell>
        <mxCell id="1-D_KxIJZ4Pd3v68MxdM-64" value="" style="edgeStyle=orthogonalEdgeStyle;rounded=0;orthogonalLoop=1;jettySize=auto;html=1;endArrow=none;endFill=0;fontFamily=Verdana;labelBackgroundColor=none;" parent="1" source="1-D_KxIJZ4Pd3v68MxdM-65" target="1-D_KxIJZ4Pd3v68MxdM-63" edge="1">
          <mxGeometry relative="1" as="geometry" />
        </mxCell>
        <mxCell id="1-D_KxIJZ4Pd3v68MxdM-65" value="&lt;div&gt;Optional&lt;/div&gt;&lt;div&gt;Product&lt;br&gt;&lt;/div&gt;" style="rounded=0;whiteSpace=wrap;html=1;fontFamily=Verdana;labelBackgroundColor=none;" parent="1" vertex="1">
          <mxGeometry x="490" y="830" width="120" height="60" as="geometry" />
        </mxCell>
        <mxCell id="1-D_KxIJZ4Pd3v68MxdM-66" style="edgeStyle=orthogonalEdgeStyle;rounded=0;orthogonalLoop=1;jettySize=auto;html=1;entryX=0;entryY=0.5;entryDx=0;entryDy=0;endArrow=classic;endFill=1;fontFamily=Verdana;labelBackgroundColor=none;" parent="1" source="1-D_KxIJZ4Pd3v68MxdM-67" target="1-D_KxIJZ4Pd3v68MxdM-68" edge="1">
          <mxGeometry relative="1" as="geometry" />
        </mxCell>
        <mxCell id="1-D_KxIJZ4Pd3v68MxdM-67" value="Order" style="rounded=0;whiteSpace=wrap;html=1;fontFamily=Verdana;labelBackgroundColor=none;" parent="1" vertex="1">
          <mxGeometry x="200" y="940" width="120" height="60" as="geometry" />
        </mxCell>
        <mxCell id="1-D_KxIJZ4Pd3v68MxdM-68" value="&lt;div&gt;Optional&lt;/div&gt;&lt;div&gt;Product&lt;br&gt;&lt;/div&gt;" style="rounded=0;whiteSpace=wrap;html=1;fontFamily=Verdana;labelBackgroundColor=none;" parent="1" vertex="1">
          <mxGeometry x="490" y="940" width="120" height="60" as="geometry" />
        </mxCell>
        <mxCell id="1-D_KxIJZ4Pd3v68MxdM-72" value="0:N" style="text;html=1;align=center;verticalAlign=middle;resizable=0;points=[];autosize=1;strokeColor=none;fillColor=none;fontFamily=Verdana;" parent="1" vertex="1">
          <mxGeometry x="345" y="830" width="40" height="20" as="geometry" />
        </mxCell>
        <mxCell id="1-D_KxIJZ4Pd3v68MxdM-73" value="0:N" style="text;html=1;align=center;verticalAlign=middle;resizable=0;points=[];autosize=1;strokeColor=none;fillColor=none;fontFamily=Verdana;" parent="1" vertex="1">
          <mxGeometry x="425" y="830" width="40" height="20" as="geometry" />
        </mxCell>
        <mxCell id="1-D_KxIJZ4Pd3v68MxdM-74" value="*" style="text;html=1;align=center;verticalAlign=middle;resizable=0;points=[];autosize=1;strokeColor=none;fillColor=none;fontFamily=Verdana;" parent="1" vertex="1">
          <mxGeometry x="460" y="940" width="20" height="20" as="geometry" />
        </mxCell>
        <mxCell id="1-D_KxIJZ4Pd3v68MxdM-76" value="" style="edgeStyle=orthogonalEdgeStyle;rounded=0;orthogonalLoop=1;jettySize=auto;html=1;endArrow=none;endFill=0;fontFamily=Verdana;labelBackgroundColor=none;" parent="1" source="1-D_KxIJZ4Pd3v68MxdM-77" target="1-D_KxIJZ4Pd3v68MxdM-78" edge="1">
          <mxGeometry relative="1" as="geometry" />
        </mxCell>
        <mxCell id="1-D_KxIJZ4Pd3v68MxdM-77" value="&lt;div&gt;Service&lt;/div&gt;&lt;div&gt;Package&lt;br&gt;&lt;/div&gt;" style="rounded=0;whiteSpace=wrap;html=1;fontFamily=Verdana;labelBackgroundColor=none;" parent="1" vertex="1">
          <mxGeometry x="200" y="1190" width="120" height="60" as="geometry" />
        </mxCell>
        <mxCell id="1-D_KxIJZ4Pd3v68MxdM-78" value="" style="rhombus;whiteSpace=wrap;html=1;fontFamily=Verdana;labelBackgroundColor=none;" parent="1" vertex="1">
          <mxGeometry x="385" y="1200" width="40" height="40" as="geometry" />
        </mxCell>
        <mxCell id="1-D_KxIJZ4Pd3v68MxdM-79" value="" style="edgeStyle=orthogonalEdgeStyle;rounded=0;orthogonalLoop=1;jettySize=auto;html=1;endArrow=none;endFill=0;fontFamily=Verdana;labelBackgroundColor=none;" parent="1" source="1-D_KxIJZ4Pd3v68MxdM-80" target="1-D_KxIJZ4Pd3v68MxdM-78" edge="1">
          <mxGeometry relative="1" as="geometry" />
        </mxCell>
        <mxCell id="1-D_KxIJZ4Pd3v68MxdM-80" value="&lt;div&gt;Optional&lt;/div&gt;&lt;div&gt;Product&lt;br&gt;&lt;/div&gt;" style="rounded=0;whiteSpace=wrap;html=1;fontFamily=Verdana;labelBackgroundColor=none;" parent="1" vertex="1">
          <mxGeometry x="490" y="1190" width="120" height="60" as="geometry" />
        </mxCell>
        <mxCell id="1-D_KxIJZ4Pd3v68MxdM-81" style="edgeStyle=orthogonalEdgeStyle;rounded=0;orthogonalLoop=1;jettySize=auto;html=1;entryX=0;entryY=0.5;entryDx=0;entryDy=0;endArrow=classic;endFill=1;fontFamily=Verdana;labelBackgroundColor=none;" parent="1" source="1-D_KxIJZ4Pd3v68MxdM-82" target="1-D_KxIJZ4Pd3v68MxdM-83" edge="1">
          <mxGeometry relative="1" as="geometry" />
        </mxCell>
        <mxCell id="1-D_KxIJZ4Pd3v68MxdM-82" value="&lt;div&gt;Service&lt;/div&gt;&lt;div&gt;Package&lt;br&gt;&lt;/div&gt;" style="rounded=0;whiteSpace=wrap;html=1;fontFamily=Verdana;labelBackgroundColor=none;" parent="1" vertex="1">
          <mxGeometry x="200" y="1300" width="120" height="60" as="geometry" />
        </mxCell>
        <mxCell id="1-D_KxIJZ4Pd3v68MxdM-83" value="&lt;div&gt;Optional&lt;/div&gt;&lt;div&gt;Product&lt;br&gt;&lt;/div&gt;" style="rounded=0;whiteSpace=wrap;html=1;fontFamily=Verdana;labelBackgroundColor=none;" parent="1" vertex="1">
          <mxGeometry x="490" y="1300" width="120" height="60" as="geometry" />
        </mxCell>
        <mxCell id="1-D_KxIJZ4Pd3v68MxdM-87" value="0:N" style="text;html=1;align=center;verticalAlign=middle;resizable=0;points=[];autosize=1;strokeColor=none;fillColor=none;fontFamily=Verdana;" parent="1" vertex="1">
          <mxGeometry x="345" y="1190" width="40" height="20" as="geometry" />
        </mxCell>
        <mxCell id="1-D_KxIJZ4Pd3v68MxdM-88" value="0:N" style="text;html=1;align=center;verticalAlign=middle;resizable=0;points=[];autosize=1;strokeColor=none;fillColor=none;fontFamily=Verdana;" parent="1" vertex="1">
          <mxGeometry x="425" y="1190" width="40" height="20" as="geometry" />
        </mxCell>
        <mxCell id="1-D_KxIJZ4Pd3v68MxdM-89" value="*" style="text;html=1;align=center;verticalAlign=middle;resizable=0;points=[];autosize=1;strokeColor=none;fillColor=none;fontFamily=Verdana;" parent="1" vertex="1">
          <mxGeometry x="460" y="1300" width="20" height="20" as="geometry" />
        </mxCell>
        <mxCell id="1-D_KxIJZ4Pd3v68MxdM-91" value="" style="edgeStyle=orthogonalEdgeStyle;rounded=0;orthogonalLoop=1;jettySize=auto;html=1;endArrow=none;endFill=0;fontFamily=Verdana;labelBackgroundColor=none;" parent="1" source="1-D_KxIJZ4Pd3v68MxdM-92" target="1-D_KxIJZ4Pd3v68MxdM-93" edge="1">
          <mxGeometry relative="1" as="geometry" />
        </mxCell>
        <mxCell id="1-D_KxIJZ4Pd3v68MxdM-92" value="&lt;div&gt;Service&lt;/div&gt;&lt;div&gt;Package&lt;br&gt;&lt;/div&gt;" style="rounded=0;whiteSpace=wrap;html=1;fontFamily=Verdana;labelBackgroundColor=none;" parent="1" vertex="1">
          <mxGeometry x="200" y="1560" width="120" height="60" as="geometry" />
        </mxCell>
        <mxCell id="1-D_KxIJZ4Pd3v68MxdM-93" value="" style="rhombus;whiteSpace=wrap;html=1;fontFamily=Verdana;labelBackgroundColor=none;" parent="1" vertex="1">
          <mxGeometry x="385" y="1570" width="40" height="40" as="geometry" />
        </mxCell>
        <mxCell id="1-D_KxIJZ4Pd3v68MxdM-94" value="" style="edgeStyle=orthogonalEdgeStyle;rounded=0;orthogonalLoop=1;jettySize=auto;html=1;endArrow=none;endFill=0;fontFamily=Verdana;labelBackgroundColor=none;" parent="1" source="1-D_KxIJZ4Pd3v68MxdM-95" target="1-D_KxIJZ4Pd3v68MxdM-93" edge="1">
          <mxGeometry relative="1" as="geometry" />
        </mxCell>
        <mxCell id="1-D_KxIJZ4Pd3v68MxdM-95" value="Service" style="rounded=0;whiteSpace=wrap;html=1;fontFamily=Verdana;labelBackgroundColor=none;" parent="1" vertex="1">
          <mxGeometry x="490" y="1560" width="120" height="60" as="geometry" />
        </mxCell>
        <mxCell id="1-D_KxIJZ4Pd3v68MxdM-96" style="edgeStyle=orthogonalEdgeStyle;rounded=0;orthogonalLoop=1;jettySize=auto;html=1;entryX=0;entryY=0.5;entryDx=0;entryDy=0;endArrow=classic;endFill=1;fontFamily=Verdana;labelBackgroundColor=none;" parent="1" source="1-D_KxIJZ4Pd3v68MxdM-97" target="1-D_KxIJZ4Pd3v68MxdM-98" edge="1">
          <mxGeometry relative="1" as="geometry" />
        </mxCell>
        <mxCell id="1-D_KxIJZ4Pd3v68MxdM-97" value="&lt;div&gt;Service&lt;/div&gt;&lt;div&gt;Package&lt;br&gt;&lt;/div&gt;" style="rounded=0;whiteSpace=wrap;html=1;fontFamily=Verdana;labelBackgroundColor=none;" parent="1" vertex="1">
          <mxGeometry x="200" y="1670" width="120" height="60" as="geometry" />
        </mxCell>
        <mxCell id="1-D_KxIJZ4Pd3v68MxdM-98" value="Service" style="rounded=0;whiteSpace=wrap;html=1;fontFamily=Verdana;labelBackgroundColor=none;" parent="1" vertex="1">
          <mxGeometry x="490" y="1670" width="120" height="60" as="geometry" />
        </mxCell>
        <mxCell id="1-D_KxIJZ4Pd3v68MxdM-99" style="edgeStyle=orthogonalEdgeStyle;rounded=0;orthogonalLoop=1;jettySize=auto;html=1;entryX=0;entryY=0.5;entryDx=0;entryDy=0;endArrow=none;endFill=0;startArrow=classic;startFill=1;fontFamily=Verdana;labelBackgroundColor=none;" parent="1" source="1-D_KxIJZ4Pd3v68MxdM-100" target="1-D_KxIJZ4Pd3v68MxdM-101" edge="1">
          <mxGeometry relative="1" as="geometry" />
        </mxCell>
        <mxCell id="1-D_KxIJZ4Pd3v68MxdM-100" value="&lt;div&gt;Service&lt;/div&gt;&lt;div&gt;Package&lt;br&gt;&lt;/div&gt;" style="rounded=0;whiteSpace=wrap;html=1;fontFamily=Verdana;labelBackgroundColor=none;" parent="1" vertex="1">
          <mxGeometry x="200" y="1780" width="120" height="60" as="geometry" />
        </mxCell>
        <mxCell id="1-D_KxIJZ4Pd3v68MxdM-101" value="Service" style="rounded=0;whiteSpace=wrap;html=1;fontFamily=Verdana;labelBackgroundColor=none;" parent="1" vertex="1">
          <mxGeometry x="490" y="1780" width="120" height="60" as="geometry" />
        </mxCell>
        <mxCell id="1-D_KxIJZ4Pd3v68MxdM-102" value="0:N" style="text;html=1;align=center;verticalAlign=middle;resizable=0;points=[];autosize=1;strokeColor=none;fillColor=none;fontFamily=Verdana;" parent="1" vertex="1">
          <mxGeometry x="345" y="1560" width="40" height="20" as="geometry" />
        </mxCell>
        <mxCell id="1-D_KxIJZ4Pd3v68MxdM-103" value="1:1" style="text;html=1;align=center;verticalAlign=middle;resizable=0;points=[];autosize=1;strokeColor=none;fillColor=none;fontFamily=Verdana;" parent="1" vertex="1">
          <mxGeometry x="430" y="1560" width="30" height="20" as="geometry" />
        </mxCell>
        <mxCell id="1-D_KxIJZ4Pd3v68MxdM-104" value="*" style="text;html=1;align=center;verticalAlign=middle;resizable=0;points=[];autosize=1;strokeColor=none;fillColor=none;fontFamily=Verdana;" parent="1" vertex="1">
          <mxGeometry x="460" y="1670" width="20" height="20" as="geometry" />
        </mxCell>
        <mxCell id="1-D_KxIJZ4Pd3v68MxdM-105" value="1" style="text;html=1;align=center;verticalAlign=middle;resizable=0;points=[];autosize=1;strokeColor=none;fillColor=none;fontFamily=Verdana;" parent="1" vertex="1">
          <mxGeometry x="330" y="1780" width="20" height="20" as="geometry" />
        </mxCell>
        <mxCell id="1-D_KxIJZ4Pd3v68MxdM-106" value="" style="edgeStyle=orthogonalEdgeStyle;rounded=0;orthogonalLoop=1;jettySize=auto;html=1;endArrow=none;endFill=0;fontFamily=Verdana;labelBackgroundColor=none;" parent="1" source="1-D_KxIJZ4Pd3v68MxdM-107" target="1-D_KxIJZ4Pd3v68MxdM-108" edge="1">
          <mxGeometry relative="1" as="geometry" />
        </mxCell>
        <mxCell id="1-D_KxIJZ4Pd3v68MxdM-107" value="Order" style="rounded=0;whiteSpace=wrap;html=1;fontFamily=Verdana;labelBackgroundColor=none;" parent="1" vertex="1">
          <mxGeometry x="680" y="490" width="120" height="60" as="geometry" />
        </mxCell>
        <mxCell id="1-D_KxIJZ4Pd3v68MxdM-108" value="" style="rhombus;whiteSpace=wrap;html=1;fontFamily=Verdana;labelBackgroundColor=none;" parent="1" vertex="1">
          <mxGeometry x="865" y="500" width="40" height="40" as="geometry" />
        </mxCell>
        <mxCell id="1-D_KxIJZ4Pd3v68MxdM-109" value="" style="edgeStyle=orthogonalEdgeStyle;rounded=0;orthogonalLoop=1;jettySize=auto;html=1;endArrow=none;endFill=0;fontFamily=Verdana;labelBackgroundColor=none;" parent="1" source="1-D_KxIJZ4Pd3v68MxdM-110" target="1-D_KxIJZ4Pd3v68MxdM-108" edge="1">
          <mxGeometry relative="1" as="geometry" />
        </mxCell>
        <mxCell id="1-D_KxIJZ4Pd3v68MxdM-110" value="&lt;div&gt;Service&lt;/div&gt;&lt;div&gt;Package&lt;br&gt;&lt;/div&gt;" style="rounded=0;whiteSpace=wrap;html=1;fontFamily=Verdana;labelBackgroundColor=none;" parent="1" vertex="1">
          <mxGeometry x="970" y="490" width="120" height="60" as="geometry" />
        </mxCell>
        <mxCell id="1-D_KxIJZ4Pd3v68MxdM-111" style="edgeStyle=orthogonalEdgeStyle;rounded=0;orthogonalLoop=1;jettySize=auto;html=1;entryX=0;entryY=0.5;entryDx=0;entryDy=0;endArrow=classic;endFill=1;fontFamily=Verdana;labelBackgroundColor=none;" parent="1" source="1-D_KxIJZ4Pd3v68MxdM-112" target="1-D_KxIJZ4Pd3v68MxdM-113" edge="1">
          <mxGeometry relative="1" as="geometry" />
        </mxCell>
        <mxCell id="1-D_KxIJZ4Pd3v68MxdM-112" value="Order" style="rounded=0;whiteSpace=wrap;html=1;fontFamily=Verdana;labelBackgroundColor=none;" parent="1" vertex="1">
          <mxGeometry x="680" y="600" width="120" height="60" as="geometry" />
        </mxCell>
        <mxCell id="1-D_KxIJZ4Pd3v68MxdM-113" value="&lt;div&gt;Service&lt;/div&gt;&lt;div&gt;Package&lt;br&gt;&lt;/div&gt;" style="rounded=0;whiteSpace=wrap;html=1;fontFamily=Verdana;labelBackgroundColor=none;" parent="1" vertex="1">
          <mxGeometry x="970" y="600" width="120" height="60" as="geometry" />
        </mxCell>
        <mxCell id="1-D_KxIJZ4Pd3v68MxdM-117" value="1:1" style="text;html=1;align=center;verticalAlign=middle;resizable=0;points=[];autosize=1;strokeColor=none;fillColor=none;fontFamily=Verdana;" parent="1" vertex="1">
          <mxGeometry x="830" y="490" width="30" height="20" as="geometry" />
        </mxCell>
        <mxCell id="1-D_KxIJZ4Pd3v68MxdM-118" value="0:N" style="text;html=1;align=center;verticalAlign=middle;resizable=0;points=[];autosize=1;strokeColor=none;fillColor=none;fontFamily=Verdana;" parent="1" vertex="1">
          <mxGeometry x="905" y="490" width="40" height="20" as="geometry" />
        </mxCell>
        <mxCell id="1-D_KxIJZ4Pd3v68MxdM-119" value="1" style="text;html=1;align=center;verticalAlign=middle;resizable=0;points=[];autosize=1;strokeColor=none;fillColor=none;fontFamily=Verdana;" parent="1" vertex="1">
          <mxGeometry x="940" y="600" width="20" height="20" as="geometry" />
        </mxCell>
        <mxCell id="1-D_KxIJZ4Pd3v68MxdM-121" value="" style="edgeStyle=orthogonalEdgeStyle;rounded=0;orthogonalLoop=1;jettySize=auto;html=1;endArrow=none;endFill=0;fontFamily=Verdana;labelBackgroundColor=none;" parent="1" source="1-D_KxIJZ4Pd3v68MxdM-122" target="1-D_KxIJZ4Pd3v68MxdM-123" edge="1">
          <mxGeometry relative="1" as="geometry" />
        </mxCell>
        <mxCell id="1-D_KxIJZ4Pd3v68MxdM-122" value="Order" style="rounded=0;whiteSpace=wrap;html=1;fontFamily=Verdana;labelBackgroundColor=none;" parent="1" vertex="1">
          <mxGeometry x="680" y="830" width="120" height="60" as="geometry" />
        </mxCell>
        <mxCell id="1-D_KxIJZ4Pd3v68MxdM-123" value="" style="rhombus;whiteSpace=wrap;html=1;fontFamily=Verdana;labelBackgroundColor=none;" parent="1" vertex="1">
          <mxGeometry x="865" y="840" width="40" height="40" as="geometry" />
        </mxCell>
        <mxCell id="1-D_KxIJZ4Pd3v68MxdM-124" value="" style="edgeStyle=orthogonalEdgeStyle;rounded=0;orthogonalLoop=1;jettySize=auto;html=1;endArrow=none;endFill=0;fontFamily=Verdana;labelBackgroundColor=none;" parent="1" source="1-D_KxIJZ4Pd3v68MxdM-125" target="1-D_KxIJZ4Pd3v68MxdM-123" edge="1">
          <mxGeometry relative="1" as="geometry" />
        </mxCell>
        <mxCell id="1-D_KxIJZ4Pd3v68MxdM-125" value="&lt;div&gt;Validity&lt;/div&gt;&lt;div&gt;Period&lt;br&gt;&lt;/div&gt;" style="rounded=0;whiteSpace=wrap;html=1;fontFamily=Verdana;labelBackgroundColor=none;" parent="1" vertex="1">
          <mxGeometry x="970" y="830" width="120" height="60" as="geometry" />
        </mxCell>
        <mxCell id="1-D_KxIJZ4Pd3v68MxdM-126" style="edgeStyle=orthogonalEdgeStyle;rounded=0;orthogonalLoop=1;jettySize=auto;html=1;entryX=0;entryY=0.5;entryDx=0;entryDy=0;endArrow=classic;endFill=1;fontFamily=Verdana;labelBackgroundColor=none;" parent="1" source="1-D_KxIJZ4Pd3v68MxdM-127" target="1-D_KxIJZ4Pd3v68MxdM-128" edge="1">
          <mxGeometry relative="1" as="geometry" />
        </mxCell>
        <mxCell id="1-D_KxIJZ4Pd3v68MxdM-127" value="Order" style="rounded=0;whiteSpace=wrap;html=1;fontFamily=Verdana;labelBackgroundColor=none;" parent="1" vertex="1">
          <mxGeometry x="680" y="940" width="120" height="60" as="geometry" />
        </mxCell>
        <mxCell id="1-D_KxIJZ4Pd3v68MxdM-128" value="&lt;div&gt;Validity&lt;/div&gt;&lt;div&gt;Period&lt;br&gt;&lt;/div&gt;" style="rounded=0;whiteSpace=wrap;html=1;fontFamily=Verdana;labelBackgroundColor=none;" parent="1" vertex="1">
          <mxGeometry x="970" y="940" width="120" height="60" as="geometry" />
        </mxCell>
        <mxCell id="1-D_KxIJZ4Pd3v68MxdM-132" value="1:1" style="text;html=1;align=center;verticalAlign=middle;resizable=0;points=[];autosize=1;strokeColor=none;fillColor=none;fontFamily=Verdana;" parent="1" vertex="1">
          <mxGeometry x="830" y="830" width="30" height="20" as="geometry" />
        </mxCell>
        <mxCell id="1-D_KxIJZ4Pd3v68MxdM-133" value="0:N" style="text;html=1;align=center;verticalAlign=middle;resizable=0;points=[];autosize=1;strokeColor=none;fillColor=none;fontFamily=Verdana;" parent="1" vertex="1">
          <mxGeometry x="905" y="830" width="40" height="20" as="geometry" />
        </mxCell>
        <mxCell id="1-D_KxIJZ4Pd3v68MxdM-134" value="1" style="text;html=1;align=center;verticalAlign=middle;resizable=0;points=[];autosize=1;strokeColor=none;fillColor=none;fontFamily=Verdana;" parent="1" vertex="1">
          <mxGeometry x="940" y="940" width="20" height="20" as="geometry" />
        </mxCell>
        <mxCell id="1-D_KxIJZ4Pd3v68MxdM-136" value="" style="edgeStyle=orthogonalEdgeStyle;rounded=0;orthogonalLoop=1;jettySize=auto;html=1;endArrow=none;endFill=0;fontFamily=Verdana;labelBackgroundColor=none;" parent="1" source="1-D_KxIJZ4Pd3v68MxdM-137" target="1-D_KxIJZ4Pd3v68MxdM-138" edge="1">
          <mxGeometry relative="1" as="geometry" />
        </mxCell>
        <mxCell id="1-D_KxIJZ4Pd3v68MxdM-137" value="&lt;div&gt;Service&lt;/div&gt;&lt;div&gt;Package&lt;br&gt;&lt;/div&gt;" style="rounded=0;whiteSpace=wrap;html=1;fontFamily=Verdana;labelBackgroundColor=none;" parent="1" vertex="1">
          <mxGeometry x="680" y="1190" width="120" height="60" as="geometry" />
        </mxCell>
        <mxCell id="1-D_KxIJZ4Pd3v68MxdM-138" value="" style="rhombus;whiteSpace=wrap;html=1;fontFamily=Verdana;labelBackgroundColor=none;" parent="1" vertex="1">
          <mxGeometry x="865" y="1200" width="40" height="40" as="geometry" />
        </mxCell>
        <mxCell id="1-D_KxIJZ4Pd3v68MxdM-139" value="" style="edgeStyle=orthogonalEdgeStyle;rounded=0;orthogonalLoop=1;jettySize=auto;html=1;endArrow=none;endFill=0;fontFamily=Verdana;labelBackgroundColor=none;" parent="1" source="1-D_KxIJZ4Pd3v68MxdM-140" target="1-D_KxIJZ4Pd3v68MxdM-138" edge="1">
          <mxGeometry relative="1" as="geometry" />
        </mxCell>
        <mxCell id="1-D_KxIJZ4Pd3v68MxdM-140" value="&lt;div&gt;Validity&lt;/div&gt;&lt;div&gt;Period&lt;br&gt;&lt;/div&gt;" style="rounded=0;whiteSpace=wrap;html=1;fontFamily=Verdana;labelBackgroundColor=none;" parent="1" vertex="1">
          <mxGeometry x="970" y="1190" width="120" height="60" as="geometry" />
        </mxCell>
        <mxCell id="1-D_KxIJZ4Pd3v68MxdM-141" style="edgeStyle=orthogonalEdgeStyle;rounded=0;orthogonalLoop=1;jettySize=auto;html=1;entryX=0;entryY=0.5;entryDx=0;entryDy=0;endArrow=classic;endFill=1;fontFamily=Verdana;labelBackgroundColor=none;" parent="1" source="1-D_KxIJZ4Pd3v68MxdM-142" target="1-D_KxIJZ4Pd3v68MxdM-143" edge="1">
          <mxGeometry relative="1" as="geometry" />
        </mxCell>
        <mxCell id="1-D_KxIJZ4Pd3v68MxdM-142" value="&lt;div&gt;Service&lt;/div&gt;&lt;div&gt;Package&lt;br&gt;&lt;/div&gt;" style="rounded=0;whiteSpace=wrap;html=1;fontFamily=Verdana;labelBackgroundColor=none;" parent="1" vertex="1">
          <mxGeometry x="680" y="1300" width="120" height="60" as="geometry" />
        </mxCell>
        <mxCell id="1-D_KxIJZ4Pd3v68MxdM-143" value="&lt;div&gt;Validity&lt;/div&gt;&lt;div&gt;Period&lt;br&gt;&lt;/div&gt;" style="rounded=0;whiteSpace=wrap;html=1;fontFamily=Verdana;labelBackgroundColor=none;" parent="1" vertex="1">
          <mxGeometry x="970" y="1300" width="120" height="60" as="geometry" />
        </mxCell>
        <mxCell id="1-D_KxIJZ4Pd3v68MxdM-147" value="1:N" style="text;html=1;align=center;verticalAlign=middle;resizable=0;points=[];autosize=1;strokeColor=none;fillColor=none;fontFamily=Verdana;" parent="1" vertex="1">
          <mxGeometry x="825" y="1190" width="40" height="20" as="geometry" />
        </mxCell>
        <mxCell id="1-D_KxIJZ4Pd3v68MxdM-148" value="1:1" style="text;html=1;align=center;verticalAlign=middle;resizable=0;points=[];autosize=1;strokeColor=none;fillColor=none;fontFamily=Verdana;" parent="1" vertex="1">
          <mxGeometry x="910" y="1190" width="30" height="20" as="geometry" />
        </mxCell>
        <mxCell id="1-D_KxIJZ4Pd3v68MxdM-149" value="*" style="text;html=1;align=center;verticalAlign=middle;resizable=0;points=[];autosize=1;strokeColor=none;fillColor=none;fontFamily=Verdana;" parent="1" vertex="1">
          <mxGeometry x="940" y="1300" width="20" height="20" as="geometry" />
        </mxCell>
        <mxCell id="1-D_KxIJZ4Pd3v68MxdM-151" value="" style="edgeStyle=orthogonalEdgeStyle;rounded=0;orthogonalLoop=1;jettySize=auto;html=1;endArrow=none;endFill=0;fontFamily=Verdana;labelBackgroundColor=none;" parent="1" source="1-D_KxIJZ4Pd3v68MxdM-152" target="1-D_KxIJZ4Pd3v68MxdM-153" edge="1">
          <mxGeometry relative="1" as="geometry" />
        </mxCell>
        <mxCell id="1-D_KxIJZ4Pd3v68MxdM-152" value="" style="rounded=0;whiteSpace=wrap;html=1;fontFamily=Verdana;labelBackgroundColor=none;" parent="1" vertex="1">
          <mxGeometry x="680" y="1560" width="120" height="60" as="geometry" />
        </mxCell>
        <mxCell id="1-D_KxIJZ4Pd3v68MxdM-153" value="" style="rhombus;whiteSpace=wrap;html=1;fontFamily=Verdana;labelBackgroundColor=none;" parent="1" vertex="1">
          <mxGeometry x="865" y="1570" width="40" height="40" as="geometry" />
        </mxCell>
        <mxCell id="1-D_KxIJZ4Pd3v68MxdM-154" value="" style="edgeStyle=orthogonalEdgeStyle;rounded=0;orthogonalLoop=1;jettySize=auto;html=1;endArrow=none;endFill=0;fontFamily=Verdana;labelBackgroundColor=none;" parent="1" source="1-D_KxIJZ4Pd3v68MxdM-155" target="1-D_KxIJZ4Pd3v68MxdM-153" edge="1">
          <mxGeometry relative="1" as="geometry" />
        </mxCell>
        <mxCell id="1-D_KxIJZ4Pd3v68MxdM-155" value="" style="rounded=0;whiteSpace=wrap;html=1;fontFamily=Verdana;labelBackgroundColor=none;" parent="1" vertex="1">
          <mxGeometry x="970" y="1560" width="120" height="60" as="geometry" />
        </mxCell>
        <mxCell id="1-D_KxIJZ4Pd3v68MxdM-156" style="edgeStyle=orthogonalEdgeStyle;rounded=0;orthogonalLoop=1;jettySize=auto;html=1;entryX=0;entryY=0.5;entryDx=0;entryDy=0;endArrow=classic;endFill=1;fontFamily=Verdana;labelBackgroundColor=none;" parent="1" source="1-D_KxIJZ4Pd3v68MxdM-157" target="1-D_KxIJZ4Pd3v68MxdM-158" edge="1">
          <mxGeometry relative="1" as="geometry" />
        </mxCell>
        <mxCell id="1-D_KxIJZ4Pd3v68MxdM-157" value="" style="rounded=0;whiteSpace=wrap;html=1;fontFamily=Verdana;labelBackgroundColor=none;" parent="1" vertex="1">
          <mxGeometry x="680" y="1670" width="120" height="60" as="geometry" />
        </mxCell>
        <mxCell id="1-D_KxIJZ4Pd3v68MxdM-158" value="" style="rounded=0;whiteSpace=wrap;html=1;fontFamily=Verdana;labelBackgroundColor=none;" parent="1" vertex="1">
          <mxGeometry x="970" y="1670" width="120" height="60" as="geometry" />
        </mxCell>
        <mxCell id="1-D_KxIJZ4Pd3v68MxdM-159" style="edgeStyle=orthogonalEdgeStyle;rounded=0;orthogonalLoop=1;jettySize=auto;html=1;entryX=0;entryY=0.5;entryDx=0;entryDy=0;endArrow=none;endFill=0;startArrow=classic;startFill=1;fontFamily=Verdana;labelBackgroundColor=none;" parent="1" source="1-D_KxIJZ4Pd3v68MxdM-160" target="1-D_KxIJZ4Pd3v68MxdM-161" edge="1">
          <mxGeometry relative="1" as="geometry" />
        </mxCell>
        <mxCell id="1-D_KxIJZ4Pd3v68MxdM-160" value="" style="rounded=0;whiteSpace=wrap;html=1;fontFamily=Verdana;labelBackgroundColor=none;" parent="1" vertex="1">
          <mxGeometry x="680" y="1780" width="120" height="60" as="geometry" />
        </mxCell>
        <mxCell id="1-D_KxIJZ4Pd3v68MxdM-161" value="" style="rounded=0;whiteSpace=wrap;html=1;fontFamily=Verdana;labelBackgroundColor=none;" parent="1" vertex="1">
          <mxGeometry x="970" y="1780" width="120" height="60" as="geometry" />
        </mxCell>
        <mxCell id="1-D_KxIJZ4Pd3v68MxdM-162" value="0:N" style="text;html=1;align=center;verticalAlign=middle;resizable=0;points=[];autosize=1;strokeColor=none;fillColor=none;fontFamily=Verdana;" parent="1" vertex="1">
          <mxGeometry x="825" y="1560" width="40" height="20" as="geometry" />
        </mxCell>
        <mxCell id="1-D_KxIJZ4Pd3v68MxdM-163" value="0:N" style="text;html=1;align=center;verticalAlign=middle;resizable=0;points=[];autosize=1;strokeColor=none;fillColor=none;fontFamily=Verdana;" parent="1" vertex="1">
          <mxGeometry x="905" y="1560" width="40" height="20" as="geometry" />
        </mxCell>
        <mxCell id="1-D_KxIJZ4Pd3v68MxdM-164" value="*" style="text;html=1;align=center;verticalAlign=middle;resizable=0;points=[];autosize=1;strokeColor=none;fillColor=none;fontFamily=Verdana;" parent="1" vertex="1">
          <mxGeometry x="940" y="1670" width="20" height="20" as="geometry" />
        </mxCell>
        <mxCell id="1-D_KxIJZ4Pd3v68MxdM-165" value="*" style="text;html=1;align=center;verticalAlign=middle;resizable=0;points=[];autosize=1;strokeColor=none;fillColor=none;fontFamily=Verdana;" parent="1" vertex="1">
          <mxGeometry x="810" y="1780" width="20" height="20" as="geometry" />
        </mxCell>
        <mxCell id="1-D_KxIJZ4Pd3v68MxdM-167" value="Owns" style="text;html=1;align=center;verticalAlign=middle;resizable=0;points=[];autosize=1;strokeColor=none;fillColor=none;fontFamily=Verdana;" parent="1" vertex="1">
          <mxGeometry x="380" y="100" width="50" height="20" as="geometry" />
        </mxCell>
        <mxCell id="1-D_KxIJZ4Pd3v68MxdM-168" value="Places" style="text;html=1;align=center;verticalAlign=middle;resizable=0;points=[];autosize=1;strokeColor=none;fillColor=none;fontFamily=Verdana;" parent="1" vertex="1">
          <mxGeometry x="860" y="100" width="50" height="20" as="geometry" />
        </mxCell>
        <mxCell id="1-D_KxIJZ4Pd3v68MxdM-171" value="Schedules" style="text;html=1;align=center;verticalAlign=middle;resizable=0;points=[];autosize=1;strokeColor=none;fillColor=none;fontFamily=Verdana;" parent="1" vertex="1">
          <mxGeometry x="365" y="470" width="80" height="20" as="geometry" />
        </mxCell>
        <mxCell id="1-D_KxIJZ4Pd3v68MxdM-172" value="Comprehends" style="text;html=1;align=center;verticalAlign=middle;resizable=0;points=[];autosize=1;strokeColor=none;fillColor=none;fontFamily=Verdana;" parent="1" vertex="1">
          <mxGeometry x="355" y="810" width="100" height="20" as="geometry" />
        </mxCell>
        <mxCell id="1-D_KxIJZ4Pd3v68MxdM-173" value="Offers" style="text;html=1;align=center;verticalAlign=middle;resizable=0;points=[];autosize=1;strokeColor=none;fillColor=none;fontFamily=Verdana;" parent="1" vertex="1">
          <mxGeometry x="380" y="1170" width="50" height="20" as="geometry" />
        </mxCell>
        <mxCell id="1-D_KxIJZ4Pd3v68MxdM-174" value="Includes" style="text;html=1;align=center;verticalAlign=middle;resizable=0;points=[];autosize=1;strokeColor=none;fillColor=none;fontFamily=Verdana;" parent="1" vertex="1">
          <mxGeometry x="370" y="1540" width="70" height="20" as="geometry" />
        </mxCell>
        <mxCell id="1-D_KxIJZ4Pd3v68MxdM-175" value="Relationship" style="text;html=1;align=center;verticalAlign=middle;resizable=0;points=[];autosize=1;strokeColor=none;fillColor=none;fontFamily=Verdana;" parent="1" vertex="1">
          <mxGeometry x="840" y="1540" width="90" height="20" as="geometry" />
        </mxCell>
        <mxCell id="1-D_KxIJZ4Pd3v68MxdM-176" value="Provides" style="text;html=1;align=center;verticalAlign=middle;resizable=0;points=[];autosize=1;strokeColor=none;fillColor=none;fontFamily=Verdana;" parent="1" vertex="1">
          <mxGeometry x="850" y="1170" width="70" height="20" as="geometry" />
        </mxCell>
        <mxCell id="1-D_KxIJZ4Pd3v68MxdM-177" value="Lasts" style="text;html=1;align=center;verticalAlign=middle;resizable=0;points=[];autosize=1;strokeColor=none;fillColor=none;fontFamily=Verdana;" parent="1" vertex="1">
          <mxGeometry x="860" y="810" width="50" height="20" as="geometry" />
        </mxCell>
        <mxCell id="1-D_KxIJZ4Pd3v68MxdM-178" value="Comprises" style="text;html=1;align=center;verticalAlign=middle;resizable=0;points=[];autosize=1;strokeColor=none;fillColor=none;fontFamily=Verdana;" parent="1" vertex="1">
          <mxGeometry x="845" y="470" width="80" height="20" as="geometry" />
        </mxCell>
        <mxCell id="yML0pqzPVjFfHO5Hzodn-5" style="edgeStyle=orthogonalEdgeStyle;rounded=0;orthogonalLoop=1;jettySize=auto;html=1;entryX=0;entryY=0.5;entryDx=0;entryDy=0;endArrow=none;endFill=0;fontFamily=Verdana;labelBackgroundColor=none;startArrow=classic;startFill=1;" edge="1" parent="1" source="yML0pqzPVjFfHO5Hzodn-6" target="yML0pqzPVjFfHO5Hzodn-7">
          <mxGeometry relative="1" as="geometry" />
        </mxCell>
        <mxCell id="yML0pqzPVjFfHO5Hzodn-6" value="&lt;div&gt;Service&lt;/div&gt;&lt;div&gt;Package&lt;br&gt;&lt;/div&gt;" style="rounded=0;whiteSpace=wrap;html=1;fontFamily=Verdana;labelBackgroundColor=none;" vertex="1" parent="1">
          <mxGeometry x="680" y="1400" width="120" height="60" as="geometry" />
        </mxCell>
        <mxCell id="yML0pqzPVjFfHO5Hzodn-7" value="&lt;div&gt;Validity&lt;/div&gt;&lt;div&gt;Period&lt;br&gt;&lt;/div&gt;" style="rounded=0;whiteSpace=wrap;html=1;fontFamily=Verdana;labelBackgroundColor=none;" vertex="1" parent="1">
          <mxGeometry x="970" y="1400" width="120" height="60" as="geometry" />
        </mxCell>
        <mxCell id="yML0pqzPVjFfHO5Hzodn-8" value="1" style="text;html=1;align=center;verticalAlign=middle;resizable=0;points=[];autosize=1;strokeColor=none;fillColor=none;fontFamily=Verdana;" vertex="1" parent="1">
          <mxGeometry x="807" y="1400" width="20" height="20" as="geometry" />
        </mxCell>
      </root>
    </mxGraphModel>
  </diagram>
</mxfile>
